<svg
   viewBox="48 55 112 24"
   xmlns="http://www.w3.org/2000/svg">
  <path
     fill="currentColor"
     d="m 201.93953,285.37356 v -10.656 h -0.48 q -0.672,4.992 -5.184,8.448 -4.416,3.36 -12,3.36 -7.68,0 -13.92,-3.936 -6.24,-3.936 -9.888,-11.52 -3.648,-7.68 -3.648,-18.912 0,-11.328 3.744,-19.104 3.84,-7.776 10.656,-11.808 6.912,-4.032 15.936,-4.032 8.928,0 15.456,3.936 6.624,3.936 10.368,11.616 l -11.904,6.816 q -1.536,-3.936 -4.8,-6.624 -3.264,-2.784 -9.12,-2.784 -4.512,0 -7.872,1.824 -3.36,1.728 -5.184,5.376 -1.824,3.552 -1.824,9.12 v 10.752 q 0,5.568 1.824,9.216 1.824,3.552 5.184,5.376 3.36,1.728 7.872,1.728 3.648,0 6.624,-1.152 2.976,-1.152 4.704,-3.36 1.824,-2.208 1.824,-5.472 v -3.36 h -12.48 v -12.192 h 26.4 v 37.344 z m 36.43599,0 h -14.208 v -50.4 h 14.208 v 10.944 h 0.48 q 0.576,-2.784 2.112,-5.28 1.536,-2.496 4.128,-4.032 2.688,-1.632 6.624,-1.632 h 2.496 v 13.248 h -3.552 q -4.128,0 -6.912,0.768 -2.688,0.672 -4.032,2.304 -1.344,1.632 -1.344,4.608 z m 41.62001,1.152 q -7.68,0 -13.152,-3.168 -5.376,-3.264 -8.256,-9.216 -2.784,-5.952 -2.784,-14.016 0,-7.968 2.688,-13.824 2.784,-5.952 8.064,-9.216 5.28,-3.264 12.864,-3.264 8.352,0 13.44,3.648 5.184,3.552 7.584,9.408 2.4,5.856 2.4,12.672 v 4.224 h -32.352 v 0.768 q 0,4.992 2.688,7.968 2.784,2.88 8.448,2.88 4.512,0 7.2,-1.824 2.784,-1.824 5.184,-4.224 l 7.104,8.832 q -3.36,3.84 -8.832,6.144 -5.376,2.208 -12.288,2.208 z m -0.288,-42.24 q -2.88,0 -4.992,1.344 -2.016,1.248 -3.168,3.552 -1.056,2.304 -1.056,5.472 v 0.768 h 17.664 v -0.864 q 0,-3.072 -0.96,-5.376 -0.864,-2.304 -2.784,-3.552 -1.824,-1.344 -4.704,-1.344 z m 50.74003,42.24 q -7.68,0 -13.152,-3.168 -5.376,-3.264 -8.256,-9.216 -2.784,-5.952 -2.784,-14.016 0,-7.968 2.688,-13.824 2.784,-5.952 8.064,-9.216 5.28,-3.264 12.864,-3.264 8.352,0 13.44,3.648 5.184,3.552 7.584,9.408 2.4,5.856 2.4,12.672 v 4.224 h -32.352 v 0.768 q 0,4.992 2.688,7.968 2.784,2.88 8.448,2.88 4.512,0 7.2,-1.824 2.784,-1.824 5.184,-4.224 l 7.104,8.832 q -3.36,3.84 -8.832,6.144 -5.376,2.208 -12.288,2.208 z m -0.288,-42.24 q -2.88,0 -4.992,1.344 -2.016,1.248 -3.168,3.552 -1.056,2.304 -1.056,5.472 v 0.768 h 17.664 v -0.864 q 0,-3.072 -0.96,-5.376 -0.864,-2.304 -2.784,-3.552 -1.824,-1.344 -4.704,-1.344 z m 43.92403,41.088 h -14.208 v -50.4 h 14.208 v 8.544 h 0.576 q 1.344,-3.936 4.704,-6.816 3.36,-2.88 9.312,-2.88 7.68,0 11.712,5.28 4.032,5.184 4.032,14.688 v 31.584 h -14.208 v -30.432 q 0,-4.8 -1.536,-7.2 -1.536,-2.4 -5.472,-2.4 -2.304,0 -4.416,0.864 -2.016,0.768 -3.36,2.4 -1.344,1.632 -1.344,4.128 z m 82.80406,0 v -10.656 h -0.48 q -0.672,4.992 -5.184,8.448 -4.416,3.36 -12,3.36 -7.68,0 -13.92,-3.936 -6.24,-3.936 -9.888,-11.52 -3.648,-7.68 -3.648,-18.912 0,-11.328 3.744,-19.104 3.84,-7.776 10.656,-11.808 6.912,-4.032 15.936,-4.032 8.928,0 15.456,3.936 6.624,3.936 10.368,11.616 l -11.904,6.816 q -1.536,-3.936 -4.8,-6.624 -3.264,-2.784 -9.12,-2.784 -4.512,0 -7.872,1.824 -3.36,1.728 -5.184,5.376 -1.824,3.552 -1.824,9.12 v 10.752 q 0,5.568 1.824,9.216 1.824,3.552 5.184,5.376 3.36,1.728 7.872,1.728 3.648,0 6.624,-1.152 2.976,-1.152 4.704,-3.36 1.824,-2.208 1.824,-5.472 v -3.36 h -12.48 v -12.192 h 26.4 v 37.344 z m 67.34799,0 h -7.872 q -2.592,0 -4.896,-1.248 -2.208,-1.344 -3.552,-3.84 -1.344,-2.592 -1.344,-6.144 v -1.248 l 3.072,3.648 h -3.456 q -1.152,4.896 -5.088,7.488 -3.936,2.496 -9.696,2.496 -7.584,0 -11.616,-4.032 -4.032,-4.128 -4.032,-10.656 0,-5.376 2.592,-8.832 2.688,-3.456 7.488,-5.184 4.896,-1.728 11.52,-1.728 h 7.968 v -3.168 q 0,-3.648 -1.92,-5.76 -1.92,-2.208 -6.432,-2.208 -4.224,0 -6.72,1.824 -2.496,1.824 -4.128,4.128 l -8.448,-7.488 q 3.072,-4.512 7.776,-7.008 4.704,-2.592 12.576,-2.592 10.656,0 16.032,4.8 5.472,4.704 5.472,13.632 v 22.08 h 4.704 z m -18.912,-21.216 h -6.912 q -4.128,0 -6.24,1.44 -2.112,1.44 -2.112,4.224 v 1.44 q 0,2.688 1.728,4.032 1.728,1.344 4.896,1.344 2.4,0 4.32,-0.672 1.92,-0.672 3.072,-2.112 1.248,-1.44 1.248,-3.744 z m 45.46002,21.216 h -6.432 q -7.296,0 -10.752,-3.552 -3.36,-3.552 -3.36,-10.272 v -57.216 h 14.208 v 60 h 6.336 z m 26.06795,1.152 q -7.68,0 -13.152,-3.168 -5.376,-3.264 -8.256,-9.216 -2.784,-5.952 -2.784,-14.016 0,-7.968 2.688,-13.824 2.784,-5.952 8.064,-9.216 5.28,-3.264 12.864,-3.264 8.352,0 13.44,3.648 5.184,3.552 7.584,9.408 2.4,5.856 2.4,12.672 v 4.224 h -32.352 v 0.768 q 0,4.992 2.688,7.968 2.784,2.88 8.448,2.88 4.512,0 7.2,-1.824 2.784,-1.824 5.184,-4.224 l 7.104,8.832 q -3.36,3.84 -8.832,6.144 -5.376,2.208 -12.288,2.208 z m -0.288,-42.24 q -2.88,0 -4.992,1.344 -2.016,1.248 -3.168,3.552 -1.056,2.304 -1.056,5.472 v 0.768 h 17.664 v -0.864 q 0,-3.072 -0.96,-5.376 -0.864,-2.304 -2.784,-3.552 -1.824,-1.344 -4.704,-1.344 z"
     transform="scale(0.26458333)"
     aria-label="GreenGale" />
</svg>
